<svg height="44" viewBox="0 0 144 44" width="144" xmlns="http://www.w3.org/2000/svg"><g fill="none" fill-rule="evenodd"><g fill="#231f20"><path d="M40.322 41h1.116l1.104-2.728h3.522L47.167 41h1.116l-3.571-8.68h-.818zm2.592-3.658l1.389-3.435 1.389 3.435zM55.19 41h1.042v-7.75h2.988v-.93h-7.018v.93h2.988zm7.006.124c1.848 0 3.2-1.376 3.2-3.398 0-2.033-1.352-3.397-3.2-3.397s-3.2 1.364-3.2 3.397c0 2.022 1.352 3.398 3.2 3.398zm0-.893c-1.352 0-2.207-1.116-2.207-2.505 0-1.4.855-2.504 2.207-2.504s2.207 1.103 2.207 2.504c0 1.39-.855 2.505-2.207 2.505zm7.96-5.902c-.954 0-1.698.421-2.045.93l-.26-.806h-.893v8.779h.992v-3.15c.384.596 1.128 1.042 2.207 1.042 1.984 0 3.087-1.5 3.087-3.385s-1.103-3.41-3.087-3.41zm-.086 5.902c-1.302 0-2.182-.967-2.182-2.505s.88-2.504 2.182-2.504 2.182.967 2.182 2.504-.88 2.505-2.182 2.505zm4.662-6.82h1.141v-1.327h-1.14zM74.807 41h.992v-6.547h-.992zm4.836.124c1.079 0 1.723-.446 2.083-.93.025.285.087.595.236.806h.992c-.15-.322-.236-.794-.236-1.376v-3.25c0-1.376-.893-2.045-2.48-2.045-1.24 0-2.108.595-2.53 1.203l.695.607c.384-.545.98-.917 1.835-.917 1.03 0 1.488.372 1.488.942 0 .646-.467.992-1.613 1.026l-.197.003c-1.315 0-2.505.57-2.505 1.96 0 1.264.955 1.971 2.232 1.971zm.087-.868c-.757 0-1.327-.422-1.327-1.104 0-.7.483-1.082 1.346-1.124l.167-.004c1.041 0 1.562-.136 1.81-.471v.83c0 1.117-.657 1.873-1.996 1.873zm11.594.868c1.76 0 2.827-.818 3.447-1.947l-.806-.583c-.484.943-1.29 1.6-2.641 1.6-1.662 0-2.964-1.5-2.964-3.534 0-2.12 1.302-3.534 2.964-3.534 1.314 0 2.157.632 2.653 1.587l.794-.607c-.57-1.017-1.525-1.91-3.447-1.91-2.27 0-4.006 1.81-4.006 4.464 0 2.58 1.736 4.464 4.006 4.464zm7.787 0c1.847 0 3.199-1.376 3.199-3.398 0-2.033-1.352-3.397-3.2-3.397s-3.198 1.364-3.198 3.397c0 2.022 1.351 3.398 3.199 3.398zm0-.893c-1.352 0-2.207-1.116-2.207-2.505 0-1.4.855-2.504 2.207-2.504s2.207 1.103 2.207 2.504c0 1.39-.856 2.505-2.207 2.505zm11.358-5.902c-1.066 0-1.699.545-2.021 1.14-.26-.694-.818-1.14-1.736-1.14-.707 0-1.34.31-1.699.843l-.248-.72h-.893V41h.992v-3.05c0-1.7.484-2.74 1.7-2.74.718 0 1.152.433 1.152 1.487V41h.992v-3.075c0-1.736.385-2.716 1.588-2.716.793 0 1.14.521 1.14 1.538V41h.992v-4.303c0-1.29-.47-2.368-1.959-2.368zm7.019 0c-.955 0-1.7.421-2.046.93l-.26-.806h-.894v8.779h.992v-3.15c.385.596 1.129 1.042 2.208 1.042 1.984 0 3.087-1.5 3.087-3.385s-1.103-3.41-3.087-3.41zm-.087 5.902c-1.302 0-2.183-.967-2.183-2.505s.88-2.504 2.183-2.504 2.182.967 2.182 2.504-.88 2.505-2.182 2.505zm6.448.893c1.079 0 1.723-.446 2.083-.93.025.285.087.595.236.806h.992c-.15-.322-.236-.794-.236-1.376v-3.25c0-1.376-.893-2.045-2.48-2.045-1.24 0-2.108.595-2.53 1.203l.695.607c.384-.545.98-.917 1.835-.917 1.03 0 1.488.372 1.488.942 0 .646-.467.992-1.613 1.026l-.197.003c-1.315 0-2.505.57-2.505 1.96 0 1.264.955 1.971 2.232 1.971zm.087-.868c-.757 0-1.327-.422-1.327-1.104 0-.7.483-1.082 1.346-1.124l.167-.004c1.041 0 1.562-.136 1.81-.471v.83c0 1.117-.657 1.873-1.996 1.873zm8.345-5.927c-1.017 0-1.81.483-2.195.98l-.298-.856h-.892V41h.992v-3.15c0-1.736.818-2.628 2.232-2.628.942 0 1.4.545 1.4 1.488V41h.993v-4.315c0-1.463-.558-2.356-2.232-2.356zm3.807 9.027v-.893h.57c.459 0 .856-.124 1.066-.583l.199-.434c.223-.496.136-.868-.013-1.215l-2.43-5.778h1.104l2.12 5.183 2.07-5.183h1.092l-3.212 7.601c-.384.893-1.054 1.302-1.847 1.302z" fill-rule="nonzero"/><path d="M96.37 10.68c1.695 0 3.157.6 4.393 1.78l.098.08a6.162 6.162 0 0 1 1.395 2.047c.31.752.465 1.567.465 2.444 0 1.769-.62 3.266-1.86 4.491-.032.03-.066.05-.098.08-.61.581-1.264 1.03-1.972 1.32a6.31 6.31 0 0 1-2.422.46c-1.52 0-2.847-.465-3.982-1.396v5.66c0 .339-.115.621-.346.844-.02.02-.046.026-.067.044v.22h-.392a1.24 1.24 0 0 1-.386.07 1.25 1.25 0 0 1-.39-.07 1.093 1.093 0 0 1-.455-.264 1.144 1.144 0 0 1-.334-.845V17.031c0-1.754.62-3.251 1.86-4.49.03-.031.066-.052.097-.082 1.222-1.179 2.685-1.778 4.395-1.778zM42.891 5.239c.325 0 .604.114.834.345.23.23.346.508.346.833v4.264h1.418c.325 0 .601.115.828.346.227.23.34.509.34.833 0 .333-.113.615-.34.845a1.116 1.116 0 0 1-.828.347h-1.418v5.703c0 1.132.43 1.838 1.286 2.118.282.092.609.139.983.139.325 0 .601.116.828.346.226.23.34.51.34.833 0 .334-.114.614-.34.845a1.117 1.117 0 0 1-.828.346c-.35 0-.673-.026-.983-.065-2.433-.31-3.657-1.825-3.657-4.562V13.05h-.533c-.317 0-.592-.116-.822-.347a1.148 1.148 0 0 1-.346-.845c0-.324.116-.602.346-.833.23-.23.505-.346.822-.346h.533V6.416c0-.325.116-.603.346-.833.231-.23.513-.345.845-.345zm14.192 5.443c1.646 0 3.068.574 4.28 1.685.07.063.145.108.212.174a6.15 6.15 0 0 1 1.395 2.047c.31.752.465 1.567.465 2.444 0 .34-.115.622-.346.845-.198.19-.433.3-.705.328l-.14.006H53.26c.129.416.318.795.568 1.14a4.004 4.004 0 0 0 3.255 1.66c.499 0 .956-.075 1.372-.226.416-.15.802-.377 1.157-.68.227-.188.488-.287.783-.295.34 0 .622.112.845.334a.372.372 0 0 1 .047.06l.077.127c.127.19.211.402.211.66 0 .247-.084.46-.211.653-.043.065-.072.137-.13.196-1.172 1.029-2.555 1.542-4.15 1.542-1.626 0-3.02-.556-4.203-1.618-.094-.085-.198-.149-.29-.24-1.24-1.24-1.86-2.738-1.86-4.492s.62-3.251 1.86-4.49c.092-.092.196-.156.29-.242 1.184-1.063 2.577-1.618 4.202-1.618zm10.834-5.443a1.208 1.208 0 0 1 .606.181c.082.05.168.091.239.164.02.021.027.048.046.07.184.219.289.473.289.774v14.585h.544c.325 0 .603.115.834.346.23.23.346.511.346.844 0 .325-.116.603-.346.833a1.136 1.136 0 0 1-.834.346h-1.735c-.326 0-.602-.115-.829-.346a1.144 1.144 0 0 1-.34-.833V6.427c0-.332.112-.614.334-.844.133-.137.294-.22.468-.276.118-.037.24-.07.378-.07zm12.331 5.443c1.697 0 3.159.6 4.394 1.78.032.03.067.049.098.08a6.155 6.155 0 0 1 1.395 2.046 6.35 6.35 0 0 1 .465 2.444c0 .34-.115.622-.345.845-.198.19-.434.3-.706.328l-.14.006h-8.984c.129.416.318.795.567 1.14a3.997 3.997 0 0 0 1.991 1.457c.405.136.826.204 1.265.204.5 0 .957-.076 1.373-.227.416-.15.8-.377 1.157-.68.226-.188.487-.287.782-.295.34 0 .622.112.845.334.106.105.182.227.237.358a1.24 1.24 0 0 1 0 .968 1.187 1.187 0 0 1-.242.37c-1.173 1.029-2.557 1.542-4.152 1.542-1.558 0-2.902-.517-4.054-1.495-.146-.123-.3-.225-.438-.364-1.24-1.24-1.86-2.737-1.86-4.49 0-1.755.62-3.252 1.86-4.492.139-.138.292-.24.438-.364 1.152-.978 2.496-1.495 4.054-1.495zm32.24 0c1.676 0 3.122.59 4.348 1.74.047.044.098.073.143.118a6.23 6.23 0 0 1 1.39 2.054 6.52 6.52 0 0 1 .47 2.438c0 1.769-.62 3.266-1.86 4.491-.045.045-.096.075-.143.118-1.226 1.15-2.672 1.741-4.348 1.741-1.712 0-3.173-.6-4.395-1.778-.03-.03-.066-.05-.097-.08-1.24-1.24-1.86-2.738-1.86-4.492s.62-3.251 1.86-4.492c.03-.03.066-.05.097-.08 1.222-1.179 2.683-1.779 4.395-1.779zm16.075 0c.233 0 .495.025.753.047.109.01.204.007.318.02.381.045.734.127 1.055.244.322.117.588.277.8.483.211.204.316.468.316.793 0 .166-.03.321-.095.465a1.33 1.33 0 0 1-.256.38c-.105.109-.23.195-.374.255s-.298.09-.465.09a1.27 1.27 0 0 1-.498-.124 4.52 4.52 0 0 0-1.554-.284 3.991 3.991 0 0 0-2.819 1.163 3.97 3.97 0 0 0-1.163 2.818v5.171c0 .325-.116.602-.346.833-.007.007-.016.009-.023.016-.226.217-.496.33-.81.33a1.15 1.15 0 0 1-.846-.346 1.14 1.14 0 0 1-.347-.833V11.86c0-.324.117-.602.347-.832.23-.232.512-.347.845-.347.315 0 .585.113.811.331.007.007.016.009.023.016.23.23.346.508.346.832v.227a6.516 6.516 0 0 1 1.848-1.043 6.2 6.2 0 0 1 2.134-.363zm9.018-5.443c.325 0 .603.115.834.345.23.23.346.508.346.833v4.265h1.418c.325 0 .6.114.827.345.227.23.341.509.341.833 0 .334-.114.615-.34.845a1.117 1.117 0 0 1-.828.347h-1.418v5.703c0 1.504.756 2.256 2.268 2.256.326 0 .602.117.828.347.227.23.341.509.341.834 0 .333-.114.613-.34.844a1.117 1.117 0 0 1-.829.346c-1.829 0-3.103-.553-3.85-1.632-.517-.746-.79-1.734-.79-2.995V13.05h-.532c-.317 0-.592-.116-.822-.347a1.145 1.145 0 0 1-.346-.845c0-.324.115-.602.346-.833a1.12 1.12 0 0 1 .822-.345h.533V6.416a1.15 1.15 0 0 1 .789-1.104c.126-.043.257-.074.402-.074zm-25.093 7.812c-.56 0-1.081.106-1.566.318a4.005 4.005 0 0 0-1.259.857c-.355.358-.637.78-.845 1.263a3.878 3.878 0 0 0-.312 1.543c0 .544.104 1.058.312 1.542.208.484.49.905.845 1.264.356.36.775.645 1.259.857a3.872 3.872 0 0 0 1.566.317c.552 0 1.07-.106 1.554-.317a4.025 4.025 0 0 0 1.264-.862c.36-.364.643-.785.851-1.264.208-.48.312-.993.312-1.537 0-.544-.104-1.056-.312-1.536a4.025 4.025 0 0 0-2.116-2.127 3.833 3.833 0 0 0-1.553-.318zm-16.12 0c-.56 0-1.082.106-1.565.318a3.996 3.996 0 0 0-1.26.857c-.355.359-.637.78-.845 1.263a3.871 3.871 0 0 0-.312 1.543c0 .544.104 1.059.312 1.542.208.484.49.905.845 1.264a4.02 4.02 0 0 0 1.26.857 3.87 3.87 0 0 0 1.565.317 3.84 3.84 0 0 0 1.554-.317 4.043 4.043 0 0 0 2.115-2.127 3.82 3.82 0 0 0 .312-1.536c0-.544-.104-1.056-.312-1.536a4.04 4.04 0 0 0-2.116-2.126 3.83 3.83 0 0 0-1.553-.32zm-39.285 0a4 4 0 0 0-1.26.204 4.166 4.166 0 0 0-1.122.574 3.91 3.91 0 0 0-.885.883 3.67 3.67 0 0 0-.476.895l-.08.245h7.646a3.817 3.817 0 0 0-.573-1.14 4.075 4.075 0 0 0-1.996-1.457 3.928 3.928 0 0 0-1.254-.204zm23.165 0a4 4 0 0 0-1.26.204 4.149 4.149 0 0 0-1.122.574c-.34.245-.635.54-.885.883-.2.276-.358.574-.475.895l-.08.245h7.645a3.807 3.807 0 0 0-.573-1.14 4.063 4.063 0 0 0-3.25-1.661z"/></g><path d="M18.82 42.281c0 .727-2.169 1.342-4.817 1.342-2.676 0-4.818-.587-4.846-1.342 0-.727 2.17-1.342 4.818-1.342 2.676 0 4.846.615 4.846 1.342" fill="#c0bebb"/><path d="M18.51.842c2.903 1.006 5.466 2.936 7.1 5.788a12.886 12.886 0 0 1 1.776 6.515c0 .028-.029.084-.029.112 0 2.265-.592 4.53-1.747 6.543-.028.028-.056.056-.056.084v.028L16.623 35.29l4.48-14.624v-.028l.028-.028c.028-.028.028-.084.056-.112.677-2.21 1.014-4.67 1.042-7.103v-.027c0-.028.028-.056.028-.112 0-2.489-.337-5.005-1.042-7.242-.676-2.153-1.606-3.887-2.704-5.173" fill="#c163a0"/><path d="M14.764.143v36.182l4.986-16.19v-.027c0-.028.028-.028.028-.056.62-2.07.958-4.39.958-6.711v-.112c0-2.321-.338-4.642-.958-6.711-.676-2.181-1.606-3.83-2.62-4.893C16.37.73 15.552.31 14.764.143" fill="#56c0d1"/><path d="M13.214.143c-.817.195-1.606.615-2.395 1.426C9.805 2.66 8.875 4.31 8.2 6.462c-.62 2.07-.958 4.39-.958 6.711v.084c0 2.32.31 4.641.958 6.739 0 .028.028.056.028.084l4.987 16.217z" fill="#e4bf41"/><path d="M9.467.842c-1.099 1.286-2.029 3.02-2.705 5.173-.704 2.265-1.043 4.753-1.043 7.242 0 .056.03.084.03.112v.027c0 2.433.337 4.894 1.013 7.103 0 .028.029.056.057.112 0 .028 0 .056.028.056l4.451 14.54-8.903-15.268c-.028-.027-.056-.083-.084-.111V19.8a13.18 13.18 0 0 1-1.719-6.515V13.2c.028-2.265.592-4.502 1.775-6.543 1.634-2.88 4.198-4.81 7.1-5.816" fill="#da583f"/></g></svg>